<mxfile host="app.diagrams.net" agent="Mozilla/5.0 (Windows NT 10.0; Win64; x64; rv:138.0) Gecko/20100101 Firefox/138.0" version="27.0.5">
  <diagram name="Page-1" id="3EERdPTI58_5zSgCEOm5">
    <mxGraphModel dx="1528" dy="1125" grid="1" gridSize="10" guides="1" tooltips="1" connect="1" arrows="1" fold="1" page="1" pageScale="1" pageWidth="827" pageHeight="1169" math="0" shadow="0">
      <root>
        <mxCell id="0" />
        <mxCell id="1" parent="0" />
        <mxCell id="4TpmdamI_STimXyb8nPf-2" style="edgeStyle=orthogonalEdgeStyle;rounded=0;orthogonalLoop=1;jettySize=auto;html=1;entryX=0.5;entryY=1;entryDx=0;entryDy=0;endArrow=block;endFill=0;endSize=9;" parent="1" source="j1K3AjCH80N07U7lh2lf-5" target="j1K3AjCH80N07U7lh2lf-14" edge="1">
          <mxGeometry relative="1" as="geometry" />
        </mxCell>
        <mxCell id="j1K3AjCH80N07U7lh2lf-5" value="&lt;p style=&quot;margin:0px;margin-top:4px;text-align:center;&quot;&gt;&lt;b&gt;Repeater&lt;/b&gt;&lt;/p&gt;&lt;hr size=&quot;1&quot; style=&quot;border-style:solid;&quot;&gt;&lt;p style=&quot;margin:0px;margin-left:4px;&quot;&gt;# address: MAC_Address&lt;/p&gt;&lt;p style=&quot;margin:0px;margin-left:4px;&quot;&gt;# packets: const double*&lt;/p&gt;&lt;hr size=&quot;1&quot; style=&quot;border-style:solid;&quot;&gt;&lt;p style=&quot;margin:0px;margin-left:4px;&quot;&gt;# set_defaults(): void&lt;br&gt;+ get_address(): MAC_Address&lt;/p&gt;&lt;p style=&quot;margin:0px;margin-left:4px;&quot;&gt;+ get_packets(): const double*&lt;br&gt;+ set_address(MAC_Address): void&lt;br&gt;+ receive(const double*&amp;amp;): void&lt;/p&gt;&lt;p style=&quot;margin:0px;margin-left:4px;&quot;&gt;+ print_info(): void&lt;/p&gt;&lt;p style=&quot;margin:0px;margin-left:4px;&quot;&gt;+ reset(): void&lt;/p&gt;" style="verticalAlign=top;align=left;overflow=fill;html=1;whiteSpace=wrap;" parent="1" vertex="1">
          <mxGeometry x="400" y="240" width="250" height="180" as="geometry" />
        </mxCell>
        <mxCell id="j1K3AjCH80N07U7lh2lf-14" value="&lt;p style=&quot;margin:0px;margin-top:4px;text-align:center;&quot;&gt;&lt;i&gt;&amp;lt;&amp;lt;Interface&amp;gt;&amp;gt;&lt;/i&gt;&lt;br&gt;&lt;b&gt;NetDevice&lt;/b&gt;&lt;/p&gt;&lt;p style=&quot;margin:0px;margin-top:4px;text-align:center;&quot;&gt;&lt;/p&gt;&lt;hr size=&quot;1&quot; style=&quot;border-style:solid;&quot;&gt;&lt;p style=&quot;margin:0px;margin-left:4px;&quot;&gt;# set_defaults(): void&lt;/p&gt;&lt;p style=&quot;margin:0px;margin-left:4px;&quot;&gt;+ get_packets(): const double*&lt;br&gt;+ receive(const double*&amp;amp;): void&lt;/p&gt;&lt;p style=&quot;margin:0px;margin-left:4px;&quot;&gt;+ get_address(): MAC_Address&lt;/p&gt;&lt;p style=&quot;margin:0px;margin-left:4px;&quot;&gt;+ set_address(MAC_Address): void&lt;/p&gt;&lt;p style=&quot;margin:0px;margin-left:4px;&quot;&gt;+ print_info(): void&lt;/p&gt;&lt;p style=&quot;margin:0px;margin-left:4px;&quot;&gt;+ reset(): void&lt;/p&gt;" style="verticalAlign=top;align=left;overflow=fill;html=1;whiteSpace=wrap;" parent="1" vertex="1">
          <mxGeometry x="400" y="40" width="250" height="150" as="geometry" />
        </mxCell>
        <mxCell id="4TpmdamI_STimXyb8nPf-1" style="edgeStyle=orthogonalEdgeStyle;rounded=0;orthogonalLoop=1;jettySize=auto;html=1;entryX=0.5;entryY=1;entryDx=0;entryDy=0;endArrow=block;endFill=0;endSize=9;" parent="1" source="j1K3AjCH80N07U7lh2lf-16" target="j1K3AjCH80N07U7lh2lf-5" edge="1">
          <mxGeometry relative="1" as="geometry" />
        </mxCell>
        <mxCell id="j1K3AjCH80N07U7lh2lf-16" value="&lt;p style=&quot;margin:0px;margin-top:4px;text-align:center;&quot;&gt;&lt;b&gt;Switch&lt;/b&gt;&lt;/p&gt;&lt;hr size=&quot;1&quot; style=&quot;border-style:solid;&quot;&gt;&lt;p style=&quot;margin:0px;margin-left:4px;&quot;&gt;# cli_cap: static const int&lt;/p&gt;&lt;p style=&quot;margin:0px;margin-left:4px;&quot;&gt;# clients: std::vector&amp;lt;Client&amp;gt;&lt;/p&gt;&lt;hr size=&quot;1&quot; style=&quot;border-style:solid;&quot;&gt;&lt;p style=&quot;margin:0px;margin-left:4px;&quot;&gt;# set_defaults(): void&lt;br&gt;+ clients_count(): int&lt;br&gt;+ connect(Client): void&lt;br&gt;+ disconnect(Client): void&lt;/p&gt;&lt;p style=&quot;margin:0px;margin-left:4px;&quot;&gt;+ get_clients(): std::vector&amp;lt;Clients&amp;gt;&lt;/p&gt;&lt;p style=&quot;margin:0px;margin-left:4px;&quot;&gt;+ set_clients(std::vector&amp;lt;Client&amp;gt;&amp;amp;): void&lt;/p&gt;&lt;p style=&quot;margin:0px;margin-left:4px;&quot;&gt;+ print_info(): void&lt;/p&gt;&lt;p style=&quot;margin:0px;margin-left:4px;&quot;&gt;+ reset(): void&lt;/p&gt;&lt;p style=&quot;margin:0px;margin-left:4px;&quot;&gt;&lt;br&gt;&lt;/p&gt;" style="verticalAlign=top;align=left;overflow=fill;html=1;whiteSpace=wrap;" parent="1" vertex="1">
          <mxGeometry x="400" y="470" width="250" height="200" as="geometry" />
        </mxCell>
        <mxCell id="j1K3AjCH80N07U7lh2lf-19" style="edgeStyle=orthogonalEdgeStyle;rounded=0;orthogonalLoop=1;jettySize=auto;html=1;entryX=0.5;entryY=1;entryDx=0;entryDy=0;endArrow=block;endFill=0;endSize=9;" parent="1" source="j1K3AjCH80N07U7lh2lf-18" target="j1K3AjCH80N07U7lh2lf-16" edge="1">
          <mxGeometry relative="1" as="geometry" />
        </mxCell>
        <mxCell id="j1K3AjCH80N07U7lh2lf-18" value="&lt;p style=&quot;margin:0px;margin-top:4px;text-align:center;&quot;&gt;&lt;b&gt;Gateway&lt;/b&gt;&lt;/p&gt;&lt;hr size=&quot;1&quot; style=&quot;border-style:solid;&quot;&gt;&lt;p style=&quot;margin:0px;margin-left:4px;&quot;&gt;# protocol: std::string&lt;/p&gt;&lt;hr size=&quot;1&quot; style=&quot;border-style:solid;&quot;&gt;&lt;p style=&quot;margin:0px;margin-left:4px;&quot;&gt;# set_defaults(): void&lt;/p&gt;&lt;p style=&quot;margin:0px;margin-left:4px;&quot;&gt;+ get_protocol(): std::string&lt;/p&gt;&lt;p style=&quot;margin:0px;margin-left:4px;&quot;&gt;+ set_protocol(): void&lt;/p&gt;&lt;p style=&quot;margin:0px;margin-left:4px;&quot;&gt;+ print_info(): void&lt;/p&gt;&lt;p style=&quot;margin:0px;margin-left:4px;&quot;&gt;+ reset(): void&lt;/p&gt;&lt;p style=&quot;margin:0px;margin-left:4px;&quot;&gt;&lt;br&gt;&lt;/p&gt;" style="verticalAlign=top;align=left;overflow=fill;html=1;whiteSpace=wrap;" parent="1" vertex="1">
          <mxGeometry x="400" y="750" width="250" height="140" as="geometry" />
        </mxCell>
        <mxCell id="j1K3AjCH80N07U7lh2lf-22" style="edgeStyle=orthogonalEdgeStyle;rounded=0;orthogonalLoop=1;jettySize=auto;html=1;entryX=0.5;entryY=1;entryDx=0;entryDy=0;endArrow=block;endFill=0;endSize=9;" parent="1" source="j1K3AjCH80N07U7lh2lf-21" target="j1K3AjCH80N07U7lh2lf-18" edge="1">
          <mxGeometry relative="1" as="geometry" />
        </mxCell>
        <mxCell id="4TpmdamI_STimXyb8nPf-8" style="edgeStyle=orthogonalEdgeStyle;rounded=0;orthogonalLoop=1;jettySize=auto;html=1;exitX=0.75;exitY=0;exitDx=0;exitDy=0;entryX=0.5;entryY=1;entryDx=0;entryDy=0;endArrow=block;endFill=0;endSize=9;" parent="1" source="j1K3AjCH80N07U7lh2lf-21" target="4TpmdamI_STimXyb8nPf-5" edge="1">
          <mxGeometry relative="1" as="geometry">
            <Array as="points">
              <mxPoint x="588" y="1000" />
              <mxPoint x="845" y="1000" />
            </Array>
          </mxGeometry>
        </mxCell>
        <mxCell id="j1K3AjCH80N07U7lh2lf-21" value="&lt;p style=&quot;margin:0px;margin-top:4px;text-align:center;&quot;&gt;&lt;b&gt;Router&lt;/b&gt;&lt;/p&gt;&lt;hr size=&quot;1&quot; style=&quot;border-style:solid;&quot;&gt;&lt;p style=&quot;margin:0px;margin-left:4px;&quot;&gt;# wps: bool&lt;/p&gt;&lt;hr size=&quot;1&quot; style=&quot;border-style:solid;&quot;&gt;&lt;p style=&quot;margin:0px;margin-left:4px;&quot;&gt;# set_defaults(): void&lt;/p&gt;&amp;nbsp;+ get_address() const: MAC_Address &lt;br&gt;&amp;nbsp;+ get_packets() const: const double* &lt;br&gt;&amp;nbsp;+ is_wps() const: bool &lt;br&gt;&amp;nbsp;+ print_info() const: void &lt;br&gt;&amp;nbsp;+ set_address(MAC_Address): void &lt;br&gt;&amp;nbsp;+ wps_init(): void &lt;br&gt;&amp;nbsp;+ connect(Client): void &lt;br&gt;&amp;nbsp;+ connect(Client, std::string, std::string): void &lt;br&gt;&amp;nbsp;+ receive(const double*&amp;amp;): void &lt;br&gt;&amp;nbsp;+ reset(): void " style="verticalAlign=top;align=left;overflow=fill;html=1;whiteSpace=wrap;" parent="1" vertex="1">
          <mxGeometry x="400" y="930" width="250" height="230" as="geometry" />
        </mxCell>
        <mxCell id="j1K3AjCH80N07U7lh2lf-24" value="&lt;p style=&quot;margin:0px;margin-top:4px;text-align:center;&quot;&gt;&lt;b&gt;Container&lt;/b&gt;&lt;/p&gt;&lt;hr size=&quot;1&quot; style=&quot;border-style:solid;&quot;&gt;&lt;p style=&quot;margin:0px;margin-left:4px;&quot;&gt;- first: Node*&lt;br&gt;- last: Node*&lt;/p&gt;&lt;hr size=&quot;1&quot; style=&quot;border-style:solid;&quot;&gt;&lt;p style=&quot;margin:0px;margin-left:4px;&quot;&gt;- get_node(int): Node*&lt;/p&gt;&lt;p style=&quot;margin:0px;margin-left:4px;&quot;&gt;+ operator[](int): const T*&lt;/p&gt;&lt;p style=&quot;margin:0px;margin-left:4px;&quot;&gt;+ add(void*): void&lt;/p&gt;&lt;p style=&quot;margin:0px;margin-left:4px;&quot;&gt;+ seek(int): void&lt;/p&gt;&lt;p style=&quot;margin:0px;margin-left:4px;&quot;&gt;+ sort(): void&lt;/p&gt;&lt;p style=&quot;margin:0px;margin-left:4px;&quot;&gt;+ count(void*): int&lt;/p&gt;&lt;p style=&quot;margin:0px;margin-left:4px;&quot;&gt;+ size(): int&lt;/p&gt;" style="verticalAlign=top;align=left;overflow=fill;html=1;whiteSpace=wrap;" parent="1" vertex="1">
          <mxGeometry x="1080" y="40" width="250" height="180" as="geometry" />
        </mxCell>
        <mxCell id="4TpmdamI_STimXyb8nPf-6" style="edgeStyle=orthogonalEdgeStyle;rounded=0;orthogonalLoop=1;jettySize=auto;html=1;entryX=0.75;entryY=1;entryDx=0;entryDy=0;endArrow=block;endFill=0;endSize=9;" parent="1" source="4TpmdamI_STimXyb8nPf-5" target="j1K3AjCH80N07U7lh2lf-5" edge="1">
          <mxGeometry relative="1" as="geometry">
            <Array as="points">
              <mxPoint x="845" y="440" />
              <mxPoint x="588" y="440" />
            </Array>
          </mxGeometry>
        </mxCell>
        <mxCell id="4TpmdamI_STimXyb8nPf-5" value="&lt;p style=&quot;margin:0px;margin-top:4px;text-align:center;&quot;&gt;&lt;b&gt;WLRepeater&lt;/b&gt;&lt;/p&gt;&lt;hr size=&quot;1&quot; style=&quot;border-style:solid;&quot;&gt;&lt;p style=&quot;margin:0px;margin-left:4px;&quot;&gt;# ssid: std::string&lt;/p&gt;&lt;p style=&quot;margin:0px;margin-left:4px;&quot;&gt;# passwd: std::string&lt;/p&gt;&lt;hr size=&quot;1&quot; style=&quot;border-style:solid;&quot;&gt;&lt;p style=&quot;margin:0px;margin-left:4px;&quot;&gt;# set_defaults(): void&lt;/p&gt;&lt;p style=&quot;margin:0px;margin-left:4px;&quot;&gt;+ get_ssid(): std::string&lt;/p&gt;&lt;p style=&quot;margin:0px;margin-left:4px;&quot;&gt;+ wpa_enabled(): bool&lt;/p&gt;&lt;p style=&quot;margin:0px;margin-left:4px;&quot;&gt;+ print_info(): void&lt;/p&gt;&lt;p style=&quot;margin:0px;margin-left:4px;&quot;&gt;+ set_ssid(std::string): void&lt;/p&gt;&lt;p style=&quot;margin:0px;margin-left:4px;&quot;&gt;+ set_passwd(std::string): void&lt;/p&gt;&lt;p style=&quot;margin:0px;margin-left:4px;&quot;&gt;+ set_wpa(bool): void&lt;/p&gt;" style="verticalAlign=top;align=left;overflow=fill;html=1;whiteSpace=wrap;" parent="1" vertex="1">
          <mxGeometry x="720" y="585" width="250" height="190" as="geometry" />
        </mxCell>
        <mxCell id="-L_gHclry_AFJp6NymPL-7" style="edgeStyle=orthogonalEdgeStyle;rounded=0;orthogonalLoop=1;jettySize=auto;html=1;entryX=0.5;entryY=1;entryDx=0;entryDy=0;endSize=9;endArrow=block;endFill=0;" parent="1" source="UrO_Cnw27MyzmVQOzWlO-1" target="j1K3AjCH80N07U7lh2lf-24" edge="1">
          <mxGeometry relative="1" as="geometry" />
        </mxCell>
        <mxCell id="UrO_Cnw27MyzmVQOzWlO-1" value="&lt;p style=&quot;margin:0px;margin-top:4px;text-align:center;&quot;&gt;&lt;b&gt;Stats&lt;/b&gt;&lt;/p&gt;&lt;hr size=&quot;1&quot; style=&quot;border-style:solid;&quot;&gt;&lt;p style=&quot;margin:0px;margin-left:4px;&quot;&gt;- routers: std::map&amp;lt;const NetDevice*, int&amp;gt;&lt;br&gt;- clients_total: int&lt;/p&gt;&lt;hr size=&quot;1&quot; style=&quot;border-style:solid;&quot;&gt;&lt;p style=&quot;margin:0px;margin-left:4px;&quot;&gt;+ to_template(ServerRoom&amp;lt;NetDevice&amp;gt;*) const: void&lt;br&gt;+ to_map(ServerRoom&amp;lt;NetDevice&amp;gt;*, int = 1, int = 0, bool = false): void&lt;br&gt;+ to_map(NetDevice*, int): void&lt;br&gt;+ increase(NetDevice*, int): void&lt;br&gt;+ decrease(NetDevice*, int): void&lt;br&gt;+ remove(NetDevice*): void&lt;br&gt;+ print() const: void&lt;br&gt;+ get_count(NetDevice*): int&lt;br&gt;+ get_total() const: int&lt;br&gt;+ get_total_devices() const: int&lt;br&gt;+ clear(): void&lt;br&gt;&lt;br&gt;&lt;/p&gt;" style="verticalAlign=top;align=left;overflow=fill;html=1;whiteSpace=wrap;" parent="1" vertex="1">
          <mxGeometry x="1080" y="300" width="250" height="270" as="geometry" />
        </mxCell>
        <mxCell id="UrO_Cnw27MyzmVQOzWlO-3" value="&lt;font style=&quot;font-size: 16px;&quot;&gt;C&lt;/font&gt;" style="text;html=1;align=center;verticalAlign=middle;whiteSpace=wrap;rounded=0;" parent="1" vertex="1">
          <mxGeometry x="815" width="60" height="30" as="geometry" />
        </mxCell>
        <mxCell id="UrO_Cnw27MyzmVQOzWlO-4" value="&lt;font style=&quot;font-size: 16px;&quot;&gt;A&lt;/font&gt;" style="text;html=1;align=center;verticalAlign=middle;whiteSpace=wrap;rounded=0;" parent="1" vertex="1">
          <mxGeometry x="495" width="60" height="30" as="geometry" />
        </mxCell>
        <mxCell id="UrO_Cnw27MyzmVQOzWlO-5" value="&lt;font style=&quot;font-size: 16px;&quot;&gt;B&lt;/font&gt;" style="text;html=1;align=center;verticalAlign=middle;whiteSpace=wrap;rounded=0;" parent="1" vertex="1">
          <mxGeometry x="1175" width="60" height="30" as="geometry" />
        </mxCell>
        <mxCell id="UrO_Cnw27MyzmVQOzWlO-6" value="public" style="text;html=1;align=center;verticalAlign=middle;whiteSpace=wrap;rounded=0;" parent="1" vertex="1">
          <mxGeometry x="520" y="190" width="60" height="30" as="geometry" />
        </mxCell>
        <mxCell id="UrO_Cnw27MyzmVQOzWlO-7" value="public" style="text;html=1;align=center;verticalAlign=middle;whiteSpace=wrap;rounded=0;" parent="1" vertex="1">
          <mxGeometry x="520" y="420" width="60" height="30" as="geometry" />
        </mxCell>
        <mxCell id="UrO_Cnw27MyzmVQOzWlO-8" value="public" style="text;html=1;align=center;verticalAlign=middle;whiteSpace=wrap;rounded=0;" parent="1" vertex="1">
          <mxGeometry x="530" y="670" width="60" height="30" as="geometry" />
        </mxCell>
        <mxCell id="UrO_Cnw27MyzmVQOzWlO-9" value="public" style="text;html=1;align=center;verticalAlign=middle;whiteSpace=wrap;rounded=0;" parent="1" vertex="1">
          <mxGeometry x="520" y="890" width="60" height="30" as="geometry" />
        </mxCell>
        <mxCell id="UrO_Cnw27MyzmVQOzWlO-10" value="public" style="text;html=1;align=center;verticalAlign=middle;whiteSpace=wrap;rounded=0;" parent="1" vertex="1">
          <mxGeometry x="840" y="510" width="60" height="30" as="geometry" />
        </mxCell>
        <mxCell id="UrO_Cnw27MyzmVQOzWlO-11" value="public" style="text;html=1;align=center;verticalAlign=middle;whiteSpace=wrap;rounded=0;" parent="1" vertex="1">
          <mxGeometry x="840" y="820" width="60" height="30" as="geometry" />
        </mxCell>
        <mxCell id="-L_gHclry_AFJp6NymPL-2" style="edgeStyle=orthogonalEdgeStyle;rounded=0;orthogonalLoop=1;jettySize=auto;html=1;endArrow=diamondThin;endFill=1;endSize=9;entryX=-0.005;entryY=0.319;entryDx=0;entryDy=0;entryPerimeter=0;exitX=0.997;exitY=0.468;exitDx=0;exitDy=0;exitPerimeter=0;" parent="1" source="j1K3AjCH80N07U7lh2lf-14" target="-L_gHclry_AFJp6NymPL-3" edge="1">
          <mxGeometry relative="1" as="geometry">
            <mxPoint x="740" y="130" as="targetPoint" />
          </mxGeometry>
        </mxCell>
        <mxCell id="-L_gHclry_AFJp6NymPL-3" value="&lt;p style=&quot;margin:0px;margin-top:4px;text-align:center;&quot;&gt;&lt;b&gt;ServerRoom&lt;/b&gt;&lt;/p&gt;&lt;hr size=&quot;1&quot; style=&quot;border-style:solid;&quot;&gt;&lt;p style=&quot;margin:0px;margin-left:4px;&quot;&gt;- first: Shelf*&lt;br&gt;- last: Shelf*&lt;/p&gt;&lt;hr size=&quot;1&quot; style=&quot;border-style:solid;&quot;&gt;&lt;p style=&quot;margin:0px;margin-left:4px;&quot;&gt;- get_shelf(ServerRoom&amp;lt;T&amp;gt;*, int): Shelf*&lt;/p&gt;&lt;p style=&quot;margin:0px;margin-left:4px;&quot;&gt;+ operator--(int): ServerRoom&amp;lt;T&amp;gt;&amp;amp;&lt;/p&gt;&lt;p style=&quot;margin:0px;margin-left:4px;&quot;&gt;+ operator==(int): ServerRoom&amp;lt;T&amp;gt;&amp;amp;&lt;/p&gt;&lt;p style=&quot;margin:0px;margin-left:4px;&quot;&gt;+ operator!=(int): ServerRoom&amp;lt;T&amp;gt;&amp;amp;&lt;/p&gt;&lt;p style=&quot;margin:0px;margin-left:4px;&quot;&gt;+ operator[](int): const T*&lt;/p&gt;&lt;p style=&quot;margin:0px;margin-left:4px;&quot;&gt;+ add(const T&amp;amp;): void&lt;/p&gt;&lt;p style=&quot;margin:0px;margin-left:4px;&quot;&gt;+ seek(int): void&lt;/p&gt;&lt;p style=&quot;margin:0px;margin-left:4px;&quot;&gt;+ sort(): void&lt;/p&gt;&lt;p style=&quot;margin:0px;margin-left:4px;&quot;&gt;+ search(std::array&amp;lt;int, 5&amp;gt;&amp;amp;): const T*&lt;/p&gt;&lt;p style=&quot;margin:0px;margin-left:4px;&quot;&gt;+ size(): int&lt;/p&gt;" style="verticalAlign=top;align=left;overflow=fill;html=1;whiteSpace=wrap;" parent="1" vertex="1">
          <mxGeometry x="720" y="40" width="250" height="220" as="geometry" />
        </mxCell>
        <mxCell id="-L_gHclry_AFJp6NymPL-5" value="T" style="rounded=0;whiteSpace=wrap;html=1;" parent="1" vertex="1">
          <mxGeometry x="1320" y="290" width="20" height="20" as="geometry" />
        </mxCell>
        <mxCell id="-L_gHclry_AFJp6NymPL-6" value="private" style="text;html=1;align=center;verticalAlign=middle;whiteSpace=wrap;rounded=0;" parent="1" vertex="1">
          <mxGeometry x="1210" y="240" width="60" height="30" as="geometry" />
        </mxCell>
        <mxCell id="qvfqNvik_dng9_O-TNWa-1" value="T" style="rounded=0;whiteSpace=wrap;html=1;" parent="1" vertex="1">
          <mxGeometry x="960" y="30" width="20" height="20" as="geometry" />
        </mxCell>
        <mxCell id="Ff1mOLnVIYMbkihKDB_v-4" style="edgeStyle=orthogonalEdgeStyle;rounded=0;orthogonalLoop=1;jettySize=auto;html=1;entryX=0;entryY=0.5;entryDx=0;entryDy=0;endSize=9;endArrow=diamondThin;endFill=1;" edge="1" parent="1" source="qvfqNvik_dng9_O-TNWa-2" target="j1K3AjCH80N07U7lh2lf-16">
          <mxGeometry relative="1" as="geometry">
            <Array as="points">
              <mxPoint x="360" y="90" />
              <mxPoint x="360" y="570" />
            </Array>
          </mxGeometry>
        </mxCell>
        <mxCell id="Ff1mOLnVIYMbkihKDB_v-5" style="edgeStyle=orthogonalEdgeStyle;rounded=0;orthogonalLoop=1;jettySize=auto;html=1;entryX=0;entryY=0.5;entryDx=0;entryDy=0;endSize=9;endArrow=diamondThin;endFill=1;" edge="1" parent="1" source="qvfqNvik_dng9_O-TNWa-2" target="j1K3AjCH80N07U7lh2lf-5">
          <mxGeometry relative="1" as="geometry">
            <Array as="points">
              <mxPoint x="360" y="90" />
              <mxPoint x="360" y="330" />
            </Array>
          </mxGeometry>
        </mxCell>
        <mxCell id="Ff1mOLnVIYMbkihKDB_v-18" style="edgeStyle=orthogonalEdgeStyle;rounded=0;orthogonalLoop=1;jettySize=auto;html=1;entryX=0.5;entryY=0;entryDx=0;entryDy=0;endSize=9;endArrow=diamondThin;endFill=1;" edge="1" parent="1" source="qvfqNvik_dng9_O-TNWa-2" target="Ff1mOLnVIYMbkihKDB_v-1">
          <mxGeometry relative="1" as="geometry" />
        </mxCell>
        <mxCell id="qvfqNvik_dng9_O-TNWa-2" value="&lt;p style=&quot;margin:0px;margin-top:4px;text-align:center;&quot;&gt;&lt;b&gt;MAC_Address&lt;/b&gt;&lt;/p&gt;&lt;hr size=&quot;1&quot; style=&quot;border-style:solid;&quot;&gt;&lt;p style=&quot;margin:0px;margin-left:4px;&quot;&gt;# values: std::array&amp;lt;usigned char, 6&amp;gt;&lt;/p&gt;&lt;hr size=&quot;1&quot; style=&quot;border-style:solid;&quot;&gt;&lt;p style=&quot;margin:0px;margin-left:4px;&quot;&gt;&lt;span style=&quot;background-color: transparent; color: light-dark(rgb(0, 0, 0), rgb(255, 255, 255));&quot;&gt;+ as_string(): std::string&lt;/span&gt;&lt;/p&gt;&lt;p style=&quot;margin:0px;margin-left:4px;&quot;&gt;+ generate(unsigned int): void&lt;/p&gt;&lt;p style=&quot;margin:0px;margin-left:4px;&quot;&gt;&lt;br&gt;&lt;/p&gt;" style="verticalAlign=top;align=left;overflow=fill;html=1;whiteSpace=wrap;" parent="1" vertex="1">
          <mxGeometry x="30" y="40" width="250" height="100" as="geometry" />
        </mxCell>
        <mxCell id="Ff1mOLnVIYMbkihKDB_v-10" style="edgeStyle=orthogonalEdgeStyle;rounded=0;orthogonalLoop=1;jettySize=auto;html=1;entryX=0;entryY=0.75;entryDx=0;entryDy=0;endSize=9;endArrow=diamondThin;endFill=1;" edge="1" parent="1" source="Ff1mOLnVIYMbkihKDB_v-1" target="j1K3AjCH80N07U7lh2lf-16">
          <mxGeometry relative="1" as="geometry">
            <mxPoint x="400" y="530" as="targetPoint" />
            <Array as="points">
              <mxPoint x="320" y="290" />
              <mxPoint x="320" y="620" />
            </Array>
          </mxGeometry>
        </mxCell>
        <mxCell id="Ff1mOLnVIYMbkihKDB_v-15" style="edgeStyle=orthogonalEdgeStyle;rounded=0;orthogonalLoop=1;jettySize=auto;html=1;entryX=0;entryY=0.75;entryDx=0;entryDy=0;endSize=9;endArrow=diamondThin;endFill=1;" edge="1" parent="1" source="Ff1mOLnVIYMbkihKDB_v-1" target="4TpmdamI_STimXyb8nPf-5">
          <mxGeometry relative="1" as="geometry">
            <Array as="points">
              <mxPoint x="320" y="290" />
              <mxPoint x="320" y="728" />
              <mxPoint x="680" y="728" />
            </Array>
          </mxGeometry>
        </mxCell>
        <mxCell id="Ff1mOLnVIYMbkihKDB_v-1" value="&lt;p style=&quot;margin:0px;margin-top:4px;text-align:center;&quot;&gt;&lt;b&gt;Client&lt;/b&gt;&lt;/p&gt;&lt;hr size=&quot;1&quot; style=&quot;border-style:solid;&quot;&gt;&lt;p style=&quot;margin:0px;margin-left:4px;&quot;&gt;# name: std::string&lt;/p&gt;&lt;p style=&quot;margin:0px;margin-left:4px;&quot;&gt;# address: MAC_Address&lt;/p&gt;&lt;p style=&quot;margin:0px;margin-left:4px;&quot;&gt;# packets: const double*&lt;/p&gt;&lt;p style=&quot;margin:0px;margin-left:4px;&quot;&gt;# char type&lt;/p&gt;&lt;hr size=&quot;1&quot; style=&quot;border-style:solid;&quot;&gt;&amp;nbsp;+ get_address() const: MAC_Address &lt;br&gt;&lt;p style=&quot;margin:0px;margin-left:4px;&quot;&gt;+ get_name() const: std::string &lt;br&gt;+ get_type() const: char &lt;br&gt;+ set_address(MAC_Address): void &lt;br&gt;+ set_name(std::string): void &lt;br&gt;+ set_type(char): void &lt;br&gt;+ send_to(NetDevice*): void &lt;br&gt;+ receive_from(NetDevice*): const double* &lt;/p&gt;&lt;p style=&quot;margin:0px;margin-left:4px;&quot;&gt;&lt;br&gt;&lt;/p&gt;&lt;p style=&quot;margin:0px;margin-left:4px;&quot;&gt;&lt;br&gt;&lt;/p&gt;" style="verticalAlign=top;align=left;overflow=fill;html=1;whiteSpace=wrap;" vertex="1" parent="1">
          <mxGeometry x="30" y="240" width="250" height="230" as="geometry" />
        </mxCell>
        <mxCell id="Ff1mOLnVIYMbkihKDB_v-2" style="edgeStyle=orthogonalEdgeStyle;rounded=0;orthogonalLoop=1;jettySize=auto;html=1;entryX=-0.002;entryY=0.617;entryDx=0;entryDy=0;entryPerimeter=0;endSize=9;endArrow=diamondThin;endFill=1;" edge="1" parent="1" source="qvfqNvik_dng9_O-TNWa-2" target="j1K3AjCH80N07U7lh2lf-21">
          <mxGeometry relative="1" as="geometry">
            <Array as="points">
              <mxPoint x="360" y="90" />
              <mxPoint x="360" y="1072" />
            </Array>
          </mxGeometry>
        </mxCell>
        <mxCell id="Ff1mOLnVIYMbkihKDB_v-3" style="edgeStyle=orthogonalEdgeStyle;rounded=0;orthogonalLoop=1;jettySize=auto;html=1;entryX=-0.004;entryY=0.571;entryDx=0;entryDy=0;entryPerimeter=0;endSize=9;endArrow=diamondThin;endFill=1;" edge="1" parent="1" source="qvfqNvik_dng9_O-TNWa-2" target="j1K3AjCH80N07U7lh2lf-18">
          <mxGeometry relative="1" as="geometry">
            <Array as="points">
              <mxPoint x="360" y="90" />
              <mxPoint x="360" y="830" />
            </Array>
          </mxGeometry>
        </mxCell>
        <mxCell id="Ff1mOLnVIYMbkihKDB_v-6" style="edgeStyle=orthogonalEdgeStyle;rounded=0;orthogonalLoop=1;jettySize=auto;html=1;entryX=-0.002;entryY=0.328;entryDx=0;entryDy=0;entryPerimeter=0;endSize=9;endArrow=diamondThin;endFill=1;" edge="1" parent="1" source="qvfqNvik_dng9_O-TNWa-2" target="j1K3AjCH80N07U7lh2lf-14">
          <mxGeometry relative="1" as="geometry" />
        </mxCell>
        <mxCell id="Ff1mOLnVIYMbkihKDB_v-8" style="edgeStyle=orthogonalEdgeStyle;rounded=0;orthogonalLoop=1;jettySize=auto;html=1;entryX=-0.004;entryY=0.686;entryDx=0;entryDy=0;entryPerimeter=0;endSize=9;endArrow=diamondThin;endFill=1;" edge="1" parent="1" source="Ff1mOLnVIYMbkihKDB_v-1" target="j1K3AjCH80N07U7lh2lf-14">
          <mxGeometry relative="1" as="geometry">
            <Array as="points">
              <mxPoint x="320" y="290" />
              <mxPoint x="320" y="143" />
            </Array>
          </mxGeometry>
        </mxCell>
        <mxCell id="Ff1mOLnVIYMbkihKDB_v-9" style="edgeStyle=orthogonalEdgeStyle;rounded=0;orthogonalLoop=1;jettySize=auto;html=1;entryX=0;entryY=0.75;entryDx=0;entryDy=0;endSize=9;endArrow=diamondThin;endFill=1;" edge="1" parent="1" source="Ff1mOLnVIYMbkihKDB_v-1" target="j1K3AjCH80N07U7lh2lf-5">
          <mxGeometry relative="1" as="geometry">
            <Array as="points">
              <mxPoint x="320" y="290" />
              <mxPoint x="320" y="375" />
            </Array>
          </mxGeometry>
        </mxCell>
        <mxCell id="Ff1mOLnVIYMbkihKDB_v-12" style="edgeStyle=orthogonalEdgeStyle;rounded=0;orthogonalLoop=1;jettySize=auto;html=1;entryX=0;entryY=0.786;entryDx=0;entryDy=0;entryPerimeter=0;endSize=9;endArrow=diamondThin;endFill=1;" edge="1" parent="1" source="Ff1mOLnVIYMbkihKDB_v-1" target="j1K3AjCH80N07U7lh2lf-18">
          <mxGeometry relative="1" as="geometry">
            <Array as="points">
              <mxPoint x="320" y="290" />
              <mxPoint x="320" y="860" />
            </Array>
          </mxGeometry>
        </mxCell>
        <mxCell id="Ff1mOLnVIYMbkihKDB_v-13" style="edgeStyle=orthogonalEdgeStyle;rounded=0;orthogonalLoop=1;jettySize=auto;html=1;entryX=-0.004;entryY=0.816;entryDx=0;entryDy=0;entryPerimeter=0;endSize=9;endArrow=diamondThin;endFill=1;" edge="1" parent="1" source="Ff1mOLnVIYMbkihKDB_v-1" target="j1K3AjCH80N07U7lh2lf-21">
          <mxGeometry relative="1" as="geometry">
            <Array as="points">
              <mxPoint x="320" y="290" />
              <mxPoint x="320" y="1118" />
              <mxPoint x="399" y="1118" />
            </Array>
          </mxGeometry>
        </mxCell>
        <mxCell id="Ff1mOLnVIYMbkihKDB_v-14" style="edgeStyle=orthogonalEdgeStyle;rounded=0;orthogonalLoop=1;jettySize=auto;html=1;entryX=0.001;entryY=0.603;entryDx=0;entryDy=0;entryPerimeter=0;endSize=9;endArrow=diamondThin;endFill=1;" edge="1" parent="1" source="qvfqNvik_dng9_O-TNWa-2" target="4TpmdamI_STimXyb8nPf-5">
          <mxGeometry relative="1" as="geometry">
            <Array as="points">
              <mxPoint x="360" y="90" />
              <mxPoint x="360" y="700" />
              <mxPoint x="680" y="700" />
            </Array>
          </mxGeometry>
        </mxCell>
        <mxCell id="Ff1mOLnVIYMbkihKDB_v-17" style="edgeStyle=orthogonalEdgeStyle;rounded=0;orthogonalLoop=1;jettySize=auto;html=1;entryX=-0.001;entryY=0.386;entryDx=0;entryDy=0;entryPerimeter=0;endSize=9;endArrow=diamondThin;endFill=0;" edge="1" parent="1" source="j1K3AjCH80N07U7lh2lf-14" target="j1K3AjCH80N07U7lh2lf-24">
          <mxGeometry relative="1" as="geometry">
            <Array as="points">
              <mxPoint x="680" y="110" />
              <mxPoint x="680" y="320" />
              <mxPoint x="1040" y="320" />
              <mxPoint x="1040" y="110" />
            </Array>
          </mxGeometry>
        </mxCell>
      </root>
    </mxGraphModel>
  </diagram>
</mxfile>
